<?xml version="1.0" encoding="UTF-8" standalone="no"?>
<!-- Uploaded to: SVG Repo, www.svgrepo.com, Transformed by: SVG Repo Mixer Tools -->

<svg
   width="96"
   height="96"
   viewBox="0 0 2.88 2.88"
   fill="none"
   version="1.1"
   id="svg1"
   sodipodi:docname="chart_fill.svg"
   inkscape:version="1.4 (86a8ad7, 2024-10-11)"
   xmlns:inkscape="http://www.inkscape.org/namespaces/inkscape"
   xmlns:sodipodi="http://sodipodi.sourceforge.net/DTD/sodipodi-0.dtd"
   xmlns="http://www.w3.org/2000/svg"
   xmlns:svg="http://www.w3.org/2000/svg">
  <defs
     id="defs1" />
  <sodipodi:namedview
     id="namedview1"
     pagecolor="#ffffff"
     bordercolor="#000000"
     borderopacity="0.25"
     inkscape:showpageshadow="2"
     inkscape:pageopacity="0.0"
     inkscape:pagecheckerboard="0"
     inkscape:deskcolor="#d1d1d1"
     inkscape:zoom="0.48878756"
     inkscape:cx="186.17495"
     inkscape:cy="72.628689"
     inkscape:window-width="1366"
     inkscape:window-height="697"
     inkscape:window-x="-8"
     inkscape:window-y="-8"
     inkscape:window-maximized="1"
     inkscape:current-layer="svg1" />
  <g
     id="SVGRepo_bgCarrier"
     stroke-width="0"
     transform="matrix(0.144,0,0,0.144,1.712,1.712)" />
  <g
     id="SVGRepo_tracerCarrier"
     stroke-linecap="round"
     stroke-linejoin="round"
     transform="matrix(0.144,0,0,0.144,1.712,1.712)" />
  <g
     id="SVGRepo_iconCarrier"
     transform="matrix(0.144,0,0,0.144,-0.288,-0.288)">
    <path
       fill-rule="evenodd"
       clip-rule="evenodd"
       d="M 3.46447,3.46447 C 2,4.92893 2,7.28595 2,12 2,16.714 2,19.0711 3.46447,20.5355 4.92893,22 7.28595,22 12,22 c 4.714,0 7.0711,0 8.5355,-1.4645 C 22,19.0711 22,16.714 22,12 22,7.28595 22,4.92893 20.5355,3.46447 19.0711,2 16.714,2 12,2 7.28595,2 4.92893,2 3.46447,3.46447 Z M 17,12.25 c 0.4142,0 0.75,0.3358 0.75,0.75 v 5 c 0,0.4142 -0.3358,0.75 -0.75,0.75 -0.4142,0 -0.75,-0.3358 -0.75,-0.75 v -5 c 0,-0.4142 0.3358,-0.75 0.75,-0.75 z M 12.75,6 C 12.75,5.58579 12.4142,5.25 12,5.25 11.5858,5.25 11.25,5.58579 11.25,6 v 12 c 0,0.4142 0.3358,0.75 0.75,0.75 0.4142,0 0.75,-0.3358 0.75,-0.75 z M 7,8.25 c 0.41421,0 0.75,0.33579 0.75,0.75 v 9 C 7.75,18.4142 7.41421,18.75 7,18.75 6.58579,18.75 6.25,18.4142 6.25,18 V 9 C 6.25,8.58579 6.58579,8.25 7,8.25 Z"
       fill="#ffffff"
       id="path1" />
  </g>
</svg>
