<?xml version="1.0" encoding="UTF-8" standalone="no"?>
<!-- Uploaded to: SVG Repo, www.svgrepo.com, Transformed by: SVG Repo Mixer Tools -->

<svg
   width="96"
   height="96"
   viewBox="0 0 2.88 2.88"
   fill="none"
   version="1.1"
   id="svg4"
   sodipodi:docname="chart.svg"
   inkscape:version="1.4 (86a8ad7, 2024-10-11)"
   xmlns:inkscape="http://www.inkscape.org/namespaces/inkscape"
   xmlns:sodipodi="http://sodipodi.sourceforge.net/DTD/sodipodi-0.dtd"
   xmlns="http://www.w3.org/2000/svg"
   xmlns:svg="http://www.w3.org/2000/svg">
  <defs
     id="defs4" />
  <sodipodi:namedview
     id="namedview4"
     pagecolor="#ffffff"
     bordercolor="#000000"
     borderopacity="0.25"
     inkscape:showpageshadow="2"
     inkscape:pageopacity="0.0"
     inkscape:pagecheckerboard="0"
     inkscape:deskcolor="#d1d1d1"
     inkscape:zoom="0.345625"
     inkscape:cx="396.38336"
     inkscape:cy="371.79023"
     inkscape:window-width="1366"
     inkscape:window-height="697"
     inkscape:window-x="-8"
     inkscape:window-y="-8"
     inkscape:window-maximized="1"
     inkscape:current-layer="svg4" />
  <g
     id="SVGRepo_bgCarrier"
     stroke-width="0" />
  <g
     id="SVGRepo_tracerCarrier"
     stroke-linecap="round"
     stroke-linejoin="round" />
  <g
     id="SVGRepo_iconCarrier"
     transform="matrix(0.13395336,0,0,0.13395336,-0.16744032,-0.16744032)">
    <path
       d="M 7,18 V 9"
       stroke="#ffffff"
       stroke-width="1.5"
       stroke-linecap="round"
       id="path1" />
    <path
       d="M 12,18 V 6"
       stroke="#ffffff"
       stroke-width="1.5"
       stroke-linecap="round"
       id="path2" />
    <path
       d="M 17,18 V 13"
       stroke="#ffffff"
       stroke-width="1.5"
       stroke-linecap="round"
       id="path3" />
    <path
       d="m 22,12 c 0,4.714 0,7.0711 -1.4645,8.5355 C 19.0711,22 16.714,22 12,22 7.28595,22 4.92893,22 3.46447,20.5355 2,19.0711 2,16.714 2,12 2,7.28595 2,4.92893 3.46447,3.46447 4.92893,2 7.28595,2 12,2 16.714,2 19.0711,2 20.5355,3.46447 21.5093,4.43821 21.8356,5.80655 21.9449,8"
       stroke="#ffffff"
       stroke-width="1.5"
       stroke-linecap="round"
       id="path4" />
  </g>
</svg>
