<?xml version="1.0" encoding="UTF-8" standalone="no"?>
<!-- Uploaded to: SVG Repo, www.svgrepo.com, Transformed by: SVG Repo Mixer Tools -->

<svg
   width="96"
   height="96"
   viewBox="0 0 2.88 2.88"
   fill="none"
   version="1.1"
   id="svg6"
   sodipodi:docname="game.svg"
   inkscape:version="1.4 (86a8ad7, 2024-10-11)"
   xmlns:inkscape="http://www.inkscape.org/namespaces/inkscape"
   xmlns:sodipodi="http://sodipodi.sourceforge.net/DTD/sodipodi-0.dtd"
   xmlns="http://www.w3.org/2000/svg"
   xmlns:svg="http://www.w3.org/2000/svg">
  <defs
     id="defs6" />
  <sodipodi:namedview
     id="namedview6"
     pagecolor="#ffffff"
     bordercolor="#000000"
     borderopacity="0.25"
     inkscape:showpageshadow="2"
     inkscape:pageopacity="0.0"
     inkscape:pagecheckerboard="0"
     inkscape:deskcolor="#d1d1d1"
     inkscape:zoom="0.65375"
     inkscape:cx="351.05163"
     inkscape:cy="367.87763"
     inkscape:window-width="1366"
     inkscape:window-height="697"
     inkscape:window-x="-8"
     inkscape:window-y="-8"
     inkscape:window-maximized="1"
     inkscape:current-layer="svg6" />
  <g
     id="SVGRepo_bgCarrier"
     stroke-width="0"
     transform="matrix(0.1339526,0,0,0.1339526,1.0824711,2.8146541)" />
  <g
     id="SVGRepo_tracerCarrier"
     stroke-linecap="round"
     stroke-linejoin="round"
     transform="matrix(0.1339526,0,0,0.1339526,1.0824711,2.8146541)" />
  <g
     id="SVGRepo_iconCarrier"
     transform="matrix(0.1339526,0,0,0.1339526,-0.16742714,-0.1004549)">
    <path
       d="M 21.2206,8 C 20.5311,5.81603 19.4281,4.63486 18.0908,4.16059 17.7099,4.02549 17.3016,4 16.8974,4 H 16.2849 C 15.4074,4 14.5514,4.27225 13.8351,4.77922 L 13.3332,5.13441 C 12.9434,5.41029 12.4776,5.55844 12,5.55844 c -0.4775,0 -0.9433,-0.14815 -1.3331,-0.42401 L 10.165,4.77922 C 9.44862,4.27225 8.59264,4 7.71504,4 H 7.10257 C 6.69838,4 6.29009,4.02549 5.90915,4.16059 3.52645,5.00566 1.88749,8.09504 2.00604,15.1026 2.02992,16.5145 2.3603,18.075 3.63423,18.6842 4.03121,18.8741 4.49667,19 5.02671,19 5.66273,19 6.1678,18.8187 6.55763,18.5632 7.47153,17.9642 8.14122,16.9639 9.11125,16.4609 9.69519,16.1581 10.3434,16 11.0011,16 h 1.9978 c 0.6577,0 1.3059,0.1581 1.8899,0.4609 0.97,0.503 1.6397,1.5033 2.5536,2.1023 0.3898,0.2555 0.8949,0.4368 1.5309,0.4368 0.53,0 0.9955,-0.1259 1.3925,-0.3158 1.2739,-0.6092 1.6043,-2.1697 1.6282,-3.5816 C 22.0132,13.9681 21.9863,12.9362 21.9176,12"
       stroke="#ffffff"
       stroke-width="1.5"
       stroke-linecap="round"
       id="path1" />
    <path
       d="m 7.5,9 v 3 M 6,10.5 h 3"
       stroke="#ffffff"
       stroke-width="1.5"
       stroke-linecap="round"
       id="path2" />
    <path
       d="M 19,10.25 C 19,10.6642 18.6642,11 18.25,11 17.8358,11 17.5,10.6642 17.5,10.25 17.5,9.83579 17.8358,9.5 18.25,9.5 18.6642,9.5 19,9.83579 19,10.25 Z"
       fill="#ffffff"
       id="path3" />
    <path
       d="M 16,10.25 C 16,10.6642 15.6642,11 15.25,11 14.8358,11 14.5,10.6642 14.5,10.25 14.5,9.83579 14.8358,9.5 15.25,9.5 15.6642,9.5 16,9.83579 16,10.25 Z"
       fill="#ffffff"
       id="path4" />
    <path
       d="M 16.75,8 C 17.1642,8 17.5,8.33579 17.5,8.75 17.5,9.16421 17.1642,9.5 16.75,9.5 16.3358,9.5 16,9.16421 16,8.75 16,8.33579 16.3358,8 16.75,8 Z"
       fill="#ffffff"
       id="path5" />
    <path
       d="m 16.75,11 c 0.4142,0 0.75,0.3358 0.75,0.75 0,0.4142 -0.3358,0.75 -0.75,0.75 C 16.3358,12.5 16,12.1642 16,11.75 16,11.3358 16.3358,11 16.75,11 Z"
       fill="#ffffff"
       id="path6" />
  </g>
</svg>
