<?xml version="1.0" encoding="UTF-8" standalone="no"?>
<!-- Uploaded to: SVG Repo, www.svgrepo.com, Transformed by: SVG Repo Mixer Tools -->

<svg
   width="96"
   height="96"
   viewBox="0 0 2.88 2.88"
   fill="none"
   version="1.1"
   id="svg2"
   sodipodi:docname="home.svg"
   inkscape:version="1.4 (86a8ad7, 2024-10-11)"
   xmlns:inkscape="http://www.inkscape.org/namespaces/inkscape"
   xmlns:sodipodi="http://sodipodi.sourceforge.net/DTD/sodipodi-0.dtd"
   xmlns="http://www.w3.org/2000/svg"
   xmlns:svg="http://www.w3.org/2000/svg">
  <defs
     id="defs2" />
  <sodipodi:namedview
     id="namedview2"
     pagecolor="#ffffff"
     bordercolor="#000000"
     borderopacity="0.25"
     inkscape:showpageshadow="2"
     inkscape:pageopacity="0.0"
     inkscape:pagecheckerboard="0"
     inkscape:deskcolor="#d1d1d1"
     inkscape:zoom="1.9551502"
     inkscape:cx="98.202171"
     inkscape:cy="43.730654"
     inkscape:window-width="1366"
     inkscape:window-height="697"
     inkscape:window-x="-8"
     inkscape:window-y="-8"
     inkscape:window-maximized="1"
     inkscape:current-layer="svg2" />
  <g
     id="SVGRepo_bgCarrier"
     stroke-width="0"
     transform="matrix(0.13395206,0,0,0.13395206,-8.0630058,-8.0629141)" />
  <g
     id="SVGRepo_tracerCarrier"
     stroke-linecap="round"
     stroke-linejoin="round"
     transform="matrix(0.13395206,0,0,0.13395206,-8.0630058,-8.0629141)" />
  <g
     id="SVGRepo_iconCarrier"
     transform="matrix(0.13395206,0,0,0.13395206,-0.16741105,-0.16742586)">
    <path
       d="m 22,12.2039 v 1.5211 c 0,3.9008 0,5.8513 -1.1716,7.0631 C 19.6569,22 17.7712,22 14,22 H 10 C 6.22876,22 4.34315,22 3.17157,20.7881 2,19.5763 2,17.6258 2,13.725 V 12.2039 C 2,9.91549 2,8.77128 2.5192,7.82274 3.0384,6.87421 3.98695,6.28551 5.88403,5.10813 l 2,-1.24126 C 9.88939,2.62229 10.8921,2 12,2 c 1.1079,0 2.1106,0.62229 4.116,1.86687 l 2,1.24125 c 1.8971,1.17739 2.8456,1.76609 3.3648,2.71462"
       stroke="#ffffff"
       stroke-width="1.5"
       stroke-linecap="round"
       id="path1" />
    <path
       d="M 15,18 H 9"
       stroke="#ffffff"
       stroke-width="1.5"
       stroke-linecap="round"
       id="path2" />
  </g>
</svg>
