<?xml version="1.0" encoding="UTF-8" standalone="no"?>
<!-- Uploaded to: SVG Repo, www.svgrepo.com, Transformed by: SVG Repo Mixer Tools -->

<svg
   width="96"
   height="96"
   viewBox="0 0 2.88 2.88"
   fill="none"
   version="1.1"
   id="svg1"
   sodipodi:docname="home_fill.svg"
   inkscape:version="1.4 (86a8ad7, 2024-10-11)"
   xmlns:inkscape="http://www.inkscape.org/namespaces/inkscape"
   xmlns:sodipodi="http://sodipodi.sourceforge.net/DTD/sodipodi-0.dtd"
   xmlns="http://www.w3.org/2000/svg"
   xmlns:svg="http://www.w3.org/2000/svg">
  <defs
     id="defs1" />
  <sodipodi:namedview
     id="namedview1"
     pagecolor="#ffffff"
     bordercolor="#000000"
     borderopacity="0.25"
     inkscape:showpageshadow="2"
     inkscape:pageopacity="0.0"
     inkscape:pagecheckerboard="0"
     inkscape:deskcolor="#d1d1d1"
     inkscape:zoom="0.46227106"
     inkscape:cx="167.65056"
     inkscape:cy="141.69176"
     inkscape:window-width="1366"
     inkscape:window-height="697"
     inkscape:window-x="-8"
     inkscape:window-y="-8"
     inkscape:window-maximized="1"
     inkscape:current-layer="svg1" />
  <g
     id="SVGRepo_bgCarrier"
     stroke-width="0"
     transform="matrix(0.144,0,0,0.144,1.712,1.712)" />
  <g
     id="SVGRepo_tracerCarrier"
     stroke-linecap="round"
     stroke-linejoin="round"
     transform="matrix(0.144,0,0,0.144,1.712,1.712)" />
  <g
     id="SVGRepo_iconCarrier"
     transform="matrix(0.144,0,0,0.144,-0.288,-0.288)">
    <path
       fill-rule="evenodd"
       clip-rule="evenodd"
       d="M 2.5192,7.82274 C 2,8.77128 2,9.91549 2,12.2039 v 1.5211 c 0,3.9008 0,5.8513 1.17157,7.0631 C 4.34315,22 6.22876,22 10,22 h 4 c 3.7712,0 5.6569,0 6.8284,-1.2119 C 22,19.5763 22,17.6258 22,13.725 V 12.2039 C 22,9.91549 22,8.77128 21.4808,7.82274 20.9616,6.87421 20.0131,6.28551 18.116,5.10812 l -2,-1.24125 C 14.1106,2.62229 13.1079,2 12,2 10.8921,2 9.88939,2.62229 7.88403,3.86687 l -2,1.24126 C 3.98695,6.28551 3.0384,6.87421 2.5192,7.82274 Z M 9,17.25 c -0.41421,0 -0.75,0.3358 -0.75,0.75 0,0.4142 0.33579,0.75 0.75,0.75 h 6 c 0.4142,0 0.75,-0.3358 0.75,-0.75 0,-0.4142 -0.3358,-0.75 -0.75,-0.75 z"
       fill="#ffffff"
       id="path1" />
  </g>
</svg>
