<?xml version="1.0" encoding="UTF-8" standalone="no"?>
<!-- Uploaded to: SVG Repo, www.svgrepo.com, Transformed by: SVG Repo Mixer Tools -->

<svg
   width="96"
   height="96"
   viewBox="0 0 2.88 2.88"
   fill="none"
   version="1.1"
   id="svg2"
   sodipodi:docname="user.svg"
   inkscape:version="1.4 (86a8ad7, 2024-10-11)"
   xmlns:inkscape="http://www.inkscape.org/namespaces/inkscape"
   xmlns:sodipodi="http://sodipodi.sourceforge.net/DTD/sodipodi-0.dtd"
   xmlns="http://www.w3.org/2000/svg"
   xmlns:svg="http://www.w3.org/2000/svg">
  <defs
     id="defs2" />
  <sodipodi:namedview
     id="namedview2"
     pagecolor="#ffffff"
     bordercolor="#000000"
     borderopacity="0.25"
     inkscape:showpageshadow="2"
     inkscape:pageopacity="0.0"
     inkscape:pagecheckerboard="0"
     inkscape:deskcolor="#d1d1d1"
     inkscape:zoom="0.36681164"
     inkscape:cx="374.85179"
     inkscape:cy="385.75657"
     inkscape:window-width="1366"
     inkscape:window-height="697"
     inkscape:window-x="-8"
     inkscape:window-y="-8"
     inkscape:window-maximized="1"
     inkscape:current-layer="svg2" />
  <g
     id="SVGRepo_bgCarrier"
     stroke-width="0"
     transform="matrix(0.13395349,0,0,0.13395349,1.0825581,1.0825581)" />
  <g
     id="SVGRepo_tracerCarrier"
     stroke-linecap="round"
     stroke-linejoin="round"
     transform="matrix(0.13395349,0,0,0.13395349,1.0825581,1.0825581)" />
  <g
     id="SVGRepo_iconCarrier"
     transform="matrix(0.13395349,0,0,0.13395349,-0.16744188,-0.16744188)">
    <circle
       cx="12"
       cy="9"
       r="3"
       stroke="#ffffff"
       stroke-width="1.5"
       id="circle1" />
    <path
       d="M 17.9691,20 C 17.81,17.1085 16.9247,15 11.9999,15 7.07521,15 6.18991,17.1085 6.03076,20"
       stroke="#ffffff"
       stroke-width="1.5"
       stroke-linecap="round"
       id="path1" />
    <path
       d="M 7,3.33782 C 8.47087,2.48697 10.1786,2 12,2 17.5228,2 22,6.47715 22,12 22,17.5228 17.5228,22 12,22 6.47715,22 2,17.5228 2,12 2,10.1786 2.48697,8.47087 3.33782,7"
       stroke="#ffffff"
       stroke-width="1.5"
       stroke-linecap="round"
       id="path2" />
  </g>
</svg>
