<?xml version="1.0" encoding="UTF-8" standalone="no"?>
<svg
   height="640"
   viewBox="0 -960 12800 12800"
   width="640"
   fill="#e8eaed"
   version="1.1"
   id="svg1"
   sodipodi:docname="joystick.svg"
   inkscape:version="1.3.2 (091e20e, 2023-11-25, custom)"
   xmlns:inkscape="http://www.inkscape.org/namespaces/inkscape"
   xmlns:sodipodi="http://sodipodi.sourceforge.net/DTD/sodipodi-0.dtd"
   xmlns="http://www.w3.org/2000/svg"
   xmlns:svg="http://www.w3.org/2000/svg">
  <defs
     id="defs1" />
  <sodipodi:namedview
     id="namedview1"
     pagecolor="#ffffff"
     bordercolor="#666666"
     borderopacity="1.0"
     inkscape:showpageshadow="2"
     inkscape:pageopacity="0.0"
     inkscape:pagecheckerboard="0"
     inkscape:deskcolor="#d1d1d1"
     inkscape:zoom="0.51302083"
     inkscape:cx="272.8934"
     inkscape:cy="285.56345"
     inkscape:window-width="1366"
     inkscape:window-height="697"
     inkscape:window-x="-8"
     inkscape:window-y="-8"
     inkscape:window-maximized="1"
     inkscape:current-layer="svg1" />
  <path
     d="m 5945.9073,3373.879 v -423.8197 q -650.866,-166.5006 -1082.2539,-696.1238 -431.3879,-529.6233 -431.3879,-1226.2012 0,-815.24747 576.6975,-1391.49088 Q 5585.6606,-940 6401.5135,-940 q 815.8529,0 1391.0367,576.24342 575.1839,576.24341 575.1839,1391.49088 0,696.5779 -431.3879,1226.2012 -431.3879,529.6232 -1082.2539,696.1238 v 423.8197 l 4540.9257,2618.6002 q 215.693,123.6646 334.968,331.6389 119.124,208.1258 119.124,455.4549 v 1513.6417 q 0,247.3291 -119.124,455.4548 -119.275,207.9744 -334.968,331.6389 L 6854.0923,11698.909 Q 6637.1875,11820 6397.578,11820 q -239.7609,0 -451.6707,-121.091 L 1404.982,9080.3084 Q 1189.2881,8956.6439 1070.1645,8748.6695 950.8895,8540.5438 950.8895,8293.2147 V 6779.573 q 0,-247.3291 119.275,-455.4549 119.1236,-207.9743 334.8175,-331.6389 z M 2540.2133,6386.0261 6399.9998,8611.0795 10244.65,6370.8897 6854.0923,4418.2918 v 2209.917 h -908.185 v -2209.917 z"
     id="path1"
     style="stroke-width:15.1364;fill:#ffffff" />
</svg>
